<svg xmlns="http://www.w3.org/2000/svg" xmlns:xlink="http://www.w3.org/1999/xlink" viewBox="0 0 240.7 64.1">
        <path id="Nadia" d="M0,63.2V7.7C0,2.1,3.2,0,7.3,0c4.8,0,6.4,2.9,9.6,9.2l20.2,41.7h0.2V0.5h8.4v57.2c0,3.4-2.1,6-6.5,6
          c-4,0-5.9-1.3-8.3-6.1L8.6,11.8H8.4v51.4H0z M102.1,63.2V39.8c0-12.4-8.4-20.4-21.7-20.4c-13.8,0-22.2,9.7-22.2,21.9
          c0,12.6,8.8,22.9,21.2,22.9c5.5,0,8.5-1.8,11.6-4.1v-9.3c-2.7,3.4-6.4,5.9-10.8,5.9c-8.3,0-14.1-6.7-14.1-14.7c0-8.2,5.5-15,14.2-15
          c7.2,0,14,4.1,14,12.2v24.2H102.1z M150.6,0.5V39c0,11.8-6.3,17.6-13.8,17.6c-8.4,0-14.3-6.2-14.3-15c0-8.9,5.6-14.8,14.1-14.8
          c3.6,0,8,1.8,10.8,3.8v-8.2c-3.8-2.2-7.9-3-12.2-3c-11,0-20.7,9.3-20.7,21.3c0,12.7,8.2,23.5,22.2,23.5c12.6,0,21.7-9.5,21.7-23.7
          V0.5H150.6z M177.7,5.9c-3,0-4.8,2.3-4.8,4.8c0,2.4,1.7,4.7,4.8,4.7c3.1,0,4.7-2.3,4.7-4.7C182.4,8.2,180.7,5.9,177.7,5.9
          M173.7,63.2h7.9v-43h-7.9V63.2z M240.7,63.2V39.8c0-12.4-8.4-20.4-21.7-20.4c-13.8,0-22.2,9.7-22.2,21.9c0,12.6,8.8,22.9,21.1,22.9
          c5.5,0,8.5-1.8,11.7-4.1v-9.3c-2.7,3.4-6.4,5.9-10.8,5.9c-8.2,0-14.1-6.7-14.1-14.7c0-8.2,5.5-15,14.2-15c7.2,0,14,4.1,14,12.2v24.2
          H240.7z"></path>
      </svg>
